<?xml version="1.0" standalone="no"?>
<!DOCTYPE svg PUBLIC "-//W3C//DTD SVG 20010904//EN"
 "http://www.w3.org/TR/2001/REC-SVG-20010904/DTD/svg10.dtd">
<svg version="1.0" xmlns="http://www.w3.org/2000/svg"
 width="100.000000pt" height="100.000000pt" viewBox="0 0 100.000000 100.000000"
 preserveAspectRatio="xMidYMid meet">
<metadata>
Created by potrace 1.13, written by Peter Selinger 2001-2015
</metadata>
<g transform="translate(0.000000,100.000000) scale(0.100000,-0.100000)"
fill="#000000" stroke="none">
<path d="M428 842 c-10 -4 15 -7 55 -7 47 0 86 -6 111 -18 46 -20 44 -32 -3
-16 -53 18 -162 6 -213 -24 -49 -29 -98 -77 -122 -122 l-17 -30 6 30 c9 46 55
106 109 143 27 17 44 32 39 32 -19 0 -102 -61 -126 -93 -51 -68 -70 -119 -75
-202 -5 -104 19 -173 89 -249 66 -73 130 -101 229 -100 62 0 86 4 132 27 195
96 247 364 102 526 -65 73 -130 103 -224 108 -41 1 -83 -1 -92 -5z"/>
</g>
</svg>
